<?xml version="1.0" encoding="UTF-8"?>
<svg width="88px" height="48px" viewBox="0 0 88 48" version="1.1" xmlns="http://www.w3.org/2000/svg" xmlns:xlink="http://www.w3.org/1999/xlink">
    <!-- Generator: Sketch 61.2 (89653) - https://sketch.com -->
    <title>Mastercard</title>
    <desc>Created with Sketch.</desc>
    <g id="Mastercard" stroke="none" stroke-width="1" fill="none" fill-rule="evenodd">
        <polygon id="Fill-1" fill="#FF5F00" points="35.1226207 40.2665783 52.8619869 40.2665783 52.8619869 7.66671734 35.1226207 7.66671734"></polygon>
        <path d="M36.2489752,23.966784 C36.2489752,17.3530488 39.2765241,11.4627995 43.9921103,7.66652068 C40.5432007,4.89029559 36.1924048,3.23320463 31.4631634,3.23320463 C20.2672269,3.23320463 11.1904366,12.5161045 11.1904366,23.966784 C11.1904366,35.4167978 20.2672269,44.6996946 31.4631634,44.6996946 C36.1924048,44.6996946 40.5432007,43.0426044 43.9921103,40.2670472 C39.2765241,36.4707684 36.2489752,30.5798459 36.2489752,23.966784" id="Fill-3" fill="#EB001B"></path>
        <path d="M76.7941103,23.966784 C76.7941103,35.4167978 67.71732,44.6996946 56.5213834,44.6996946 C51.7921421,44.6996946 47.4406938,43.0426044 43.9924366,40.2670472 C48.7080228,36.4707684 51.7355641,30.5798459 51.7355641,23.966784 C51.7355641,17.3530488 48.7080228,11.4627995 43.9924366,7.66652068 C47.4406938,4.89029559 51.7921421,3.23320463 56.5213834,3.23320463 C67.71732,3.23320463 76.7941103,12.5161045 76.7941103,23.966784" id="Fill-4" fill="#F79E1B"></path>
    </g>
</svg>