<?xml version="1.0" encoding="UTF-8"?>
<svg width="88px" height="48px" viewBox="0 0 88 48" version="1.1" xmlns="http://www.w3.org/2000/svg" xmlns:xlink="http://www.w3.org/1999/xlink">
    <!-- Generator: Sketch 61.2 (89653) - https://sketch.com -->
    <title>Visa</title>
    <desc>Created with Sketch.</desc>
    <defs>
        <polygon id="path-1" points="0.000111999998 -0.000111999998 84 -0.000111999998 84 27.748448 0.000111999998 27.748448"></polygon>
    </defs>
    <g id="Visa" stroke="none" stroke-width="1" fill="none" fill-rule="evenodd">
        <g transform="translate(2.000000, 10.000000)">
            <mask id="mask-2" fill="white">
                <use xlink:href="#path-1"></use>
            </mask>
            <g id="Clip-2"></g>
            <path d="M31.892112,0.488768 L20.896512,27.326208 L13.717872,27.326208 L8.309952,5.909008 C7.980672,4.591328 7.693952,4.106368 6.696592,3.556448 C5.064192,2.647568 2.373952,1.798608 0.000111999998,1.267728 L0.161392,0.488768 L11.708592,0.488768 C13.183072,0.488768 14.507472,1.491168 14.840112,3.223808 L17.700032,18.755968 L24.761632,0.488768 L31.892112,0.488768 Z M60.003552,18.565568 C60.032672,11.483248 50.426992,11.093488 50.495872,7.927808 C50.516032,6.965728 51.410912,5.943168 53.372032,5.678288 C54.348672,5.549488 57.026032,5.449248 60.065152,6.878368 L61.259072,1.188768 C59.627232,0.584528 57.521072,-0.000111999998 54.910912,-0.000111999998 C48.203232,-0.000111999998 43.478512,3.650528 43.438192,8.872528 C43.397872,12.739328 46.809392,14.889728 49.380912,16.174368 C52.026912,17.491488 52.914512,18.333168 52.902752,19.510848 C52.885952,21.309008 50.796032,22.104768 48.843312,22.137248 C45.432352,22.191568 43.447152,21.193648 41.866832,20.443248 L40.638752,26.323808 C42.222992,27.070288 45.152352,27.715968 48.186432,27.748448 C55.316912,27.748448 59.983392,24.143728 60.003552,18.565568 Z M77.72142,27.326208 L84.00014,27.326208 L78.51886,0.488768 L72.72118,0.488768 C71.42478,0.488768 70.32326,1.267728 69.837152,2.461088 L59.651872,27.326208 L66.778432,27.326208 L68.195792,23.319408 L76.90158,23.319408 L77.72142,27.326208 Z M70.14462,17.819648 L73.72134,7.740768 L75.77542,17.819648 L70.14462,17.819648 Z M41.591312,0.488768 L35.979552,27.326208 L29.193472,27.326208 L34.805232,0.488768 L41.591312,0.488768 Z" id="Fill-1" fill="#2A2A6D" mask="url(#mask-2)"></path>
        </g>
    </g>
</svg>